# xmcd
#
# Track frame offsets: 
#        150
#        15026
#        28338
#        41455
#        53543
#        71948
#        81896
#        93479
#        109154
#        132154
#        144959
#        161760
#
# Disc length: 2350 seconds
#
# Revision: 1
# Processed by: cddbd v1.5.2PL0 Copyright (c) Steve Scherf et al.
# Submitted via: ExactAudioCopyFreeDBPlugin 1.0
#
DISCID=97092c0c
DTITLE=Ghostface Killah - Twelve Reasons To Die
DYEAR=2013
DGENRE=Rap
TTITLE0=Beware Of The Stare
TTITLE1=Rise Of The Black Suits
TTITLE2=I Declare War (feat. Masta Killa)
TTITLE3=Blood On The Cobblestones (feat. U-God and Inspectah Deck)
TTITLE4=The Center Of Attraction (feat. Cappadonna)
TTITLE5=Enemies All Around Me (feat. William Hart of The Delfonics)
TTITLE6=An Unexpected Call (The Set Up) (feat. Inspectah Deck)
TTITLE7=Rise Of The Ghostface Killah
TTITLE8=Revenge Is Sweet (feat. Masta Killa and Killa Sin)
TTITLE9=Murder Spree (feat. U-God, Masta Killa, Inspectah Deck and Killa
TTITLE9=Sin)
TTITLE10=The Sure Shot (Parts 1 And 2)
TTITLE11=Twelve Reasons To Die
EXTD=
EXTT0=
EXTT1=
EXTT2=
EXTT3=
EXTT4=
EXTT5=
EXTT6=
EXTT7=
EXTT8=
EXTT9=
EXTT10=
EXTT11=
PLAYORDER=
